<?xml version="1.0" encoding="UTF-8" standalone="no"?>
<!DOCTYPE score-partwise PUBLIC
    "-//Recordare//DTD MusicXML 3.0 Partwise//EN"
    "http://www.musicxml.org/dtds/partwise.dtd">
<score-partwise version="3.0"><part-list><score-part id="P1"><part-name>Music</part-name></score-part></part-list><part id="P1"><measure number="1"><attributes><divisions>2</divisions></attributes><attributes><clef><sign>G</sign><line>2</line></clef></attributes><attributes><key><fifths>0</fifths></key></attributes><attributes><time><beats>4</beats><beat-type>4</beat-type></time></attributes><direction placement="above"><direction-type><metronome><beat-unit>quarter</beat-unit><per-minute>170</per-minute></metronome></direction-type><sound tempo="170"></sound></direction><note><pitch><step>C</step><octave>4</octave></pitch><duration>1</duration><voice>1</voice><type>eighth</type><notations></notations></note><note><rest></rest><duration>1</duration><voice>1</voice></note><note><pitch><step>C</step><octave>4</octave></pitch><duration>1</duration><voice>1</voice><type>eighth</type><notations></notations></note><note><pitch><step>A</step><octave>4</octave></pitch><duration>1</duration><voice>1</voice><type>eighth</type><notations></notations></note><note><chord></chord><pitch><step>E</step><octave>5</octave></pitch><duration>1</duration><voice>1</voice><type>eighth</type><notations></notations></note><note><pitch><step>D</step><octave>4</octave></pitch><duration>1</duration><voice>1</voice><type>eighth</type><notations></notations></note><note><chord></chord><pitch><step>F</step><octave>4</octave></pitch><duration>1</duration><voice>1</voice><type>eighth</type><notations></notations></note><note><rest></rest><duration>1</duration><voice>1</voice></note><note><pitch><step>C</step><octave>4</octave></pitch><duration>1</duration><voice>1</voice><type>eighth</type><notations></notations></note><note><pitch><step>B</step><alter>-1</alter><octave>4</octave></pitch><duration>1</duration><voice>1</voice><type>eighth</type><notations></notations></note></measure><measure number="2"><note><rest></rest><duration>1</duration><voice>1</voice></note><note><pitch><step>C</step><octave>4</octave></pitch><duration>1</duration><voice>1</voice><type>eighth</type><notations></notations></note><note><pitch><step>B</step><alter>-1</alter><octave>4</octave></pitch><duration>1</duration><voice>1</voice><type>eighth</type><notations></notations></note><note><pitch><step>D</step><octave>4</octave></pitch><duration>1</duration><voice>1</voice><type>eighth</type><notations></notations></note><note><rest></rest><duration>1</duration><voice>1</voice></note><note><pitch><step>C</step><octave>4</octave></pitch><duration>1</duration><voice>1</voice><type>eighth</type><notations></notations></note><note><pitch><step>B</step><alter>-1</alter><octave>4</octave></pitch><duration>1</duration><voice>1</voice><type>eighth</type><notations></notations></note><note><chord></chord><pitch><step>F</step><octave>5</octave></pitch><duration>1</duration><voice>1</voice><type>eighth</type><notations></notations></note><note><rest></rest><duration>1</duration><voice>1</voice></note></measure><measure number="3"><note><pitch><step>C</step><octave>4</octave></pitch><duration>1</duration><voice>1</voice><type>eighth</type><notations></notations></note><note><pitch><step>B</step><alter>-1</alter><octave>4</octave></pitch><duration>1</duration><voice>1</voice><type>eighth</type><notations></notations></note><note><chord></chord><pitch><step>D</step><octave>5</octave></pitch><duration>1</duration><voice>1</voice><type>eighth</type><notations></notations></note><note><rest></rest><duration>1</duration><voice>1</voice></note><note><pitch><step>C</step><octave>4</octave></pitch><duration>1</duration><voice>1</voice><type>eighth</type><notations></notations></note><note><chord></chord><pitch><step>B</step><alter>-1</alter><octave>4</octave></pitch><duration>1</duration><voice>1</voice><type>eighth</type><notations></notations></note><note><pitch><step>E</step><octave>4</octave></pitch><duration>1</duration><voice>1</voice><type>eighth</type><notations></notations></note><note><rest></rest><duration>1</duration><voice>1</voice></note><note><pitch><step>C</step><octave>4</octave></pitch><duration>1</duration><voice>1</voice><type>eighth</type><notations></notations></note><note><chord></chord><pitch><step>B</step><alter>-1</alter><octave>4</octave></pitch><duration>1</duration><voice>1</voice><type>eighth</type><notations></notations></note><note><pitch><step>B</step><octave>4</octave></pitch><duration>1</duration><voice>1</voice><type>eighth</type><notations></notations></note><note><chord></chord><pitch><step>F</step><octave>5</octave></pitch><duration>1</duration><voice>1</voice><type>eighth</type><notations></notations></note></measure><measure number="4"><note><rest></rest><duration>1</duration><voice>1</voice></note><note><pitch><step>C</step><octave>4</octave></pitch><duration>1</duration><voice>1</voice><type>eighth</type><notations></notations></note><note><pitch><step>G</step><octave>4</octave></pitch><duration>1</duration><voice>1</voice><type>eighth</type><notations></notations></note><note><chord></chord><pitch><step>E</step><octave>5</octave></pitch><duration>1</duration><voice>1</voice><type>eighth</type><notations></notations></note><note><rest></rest><duration>1</duration><voice>1</voice></note><note><pitch><step>C</step><octave>4</octave></pitch><duration>1</duration><voice>1</voice><type>eighth</type><notations></notations></note><note><pitch><step>E</step><alter>-1</alter><octave>4</octave></pitch><duration>1</duration><voice>1</voice><type>eighth</type><notations></notations></note><note><chord></chord><pitch><step>B</step><alter>-1</alter><octave>4</octave></pitch><duration>1</duration><voice>1</voice><type>eighth</type><notations></notations></note><note><chord></chord><pitch><step>D</step><octave>5</octave></pitch><duration>1</duration><voice>1</voice><type>eighth</type><notations></notations></note><note><rest></rest><duration>1</duration><voice>1</voice></note><note><pitch><step>C</step><octave>4</octave></pitch><duration>1</duration><voice>1</voice><type>eighth</type><notations></notations></note><note><chord></chord><pitch><step>G</step><octave>4</octave></pitch><duration>1</duration><voice>1</voice><type>eighth</type><notations></notations></note></measure><measure number="5"><note><rest></rest><duration>1</duration><voice>1</voice></note><note><pitch><step>C</step><octave>4</octave></pitch><duration>1</duration><voice>1</voice><type>eighth</type><notations></notations></note><note><chord></chord><pitch><step>G</step><octave>4</octave></pitch><duration>1</duration><voice>1</voice><type>eighth</type><notations></notations></note><note><chord></chord><pitch><step>B</step><alter>-1</alter><octave>4</octave></pitch><duration>1</duration><voice>1</voice><type>eighth</type><notations></notations></note><note><rest></rest><duration>1</duration><voice>1</voice></note><note><pitch><step>C</step><octave>4</octave></pitch><duration>1</duration><voice>1</voice><type>eighth</type><notations></notations></note><note><chord></chord><pitch><step>G</step><octave>4</octave></pitch><duration>1</duration><voice>1</voice><type>eighth</type><notations></notations></note><note><pitch><step>D</step><octave>4</octave></pitch><duration>1</duration><voice>1</voice><type>eighth</type><notations></notations></note><note><chord></chord><pitch><step>F</step><octave>4</octave></pitch><duration>1</duration><voice>1</voice><type>eighth</type><notations></notations></note><note><chord></chord><pitch><step>B</step><alter>-1</alter><octave>4</octave></pitch><duration>1</duration><voice>1</voice><type>eighth</type><notations></notations></note><note><rest></rest><duration>1</duration><voice>1</voice></note><note><pitch><step>C</step><octave>4</octave></pitch><duration>1</duration><voice>1</voice><type>eighth</type><notations></notations></note><note><chord></chord><pitch><step>E</step><octave>4</octave></pitch><duration>1</duration><voice>1</voice><type>eighth</type><notations></notations></note><note><pitch><step>A</step><alter>-1</alter><octave>4</octave></pitch><duration>1</duration><voice>1</voice><type>eighth</type><notations></notations></note><note><chord></chord><pitch><step>D</step><octave>5</octave></pitch><duration>1</duration><voice>1</voice><type>eighth</type><notations></notations></note></measure><measure number="6"><note><rest></rest><duration>1</duration><voice>1</voice></note><note><pitch><step>C</step><octave>4</octave></pitch><duration>1</duration><voice>1</voice><type>eighth</type><notations></notations></note><note><chord></chord><pitch><step>E</step><octave>4</octave></pitch><duration>1</duration><voice>1</voice><type>eighth</type><notations></notations></note><note><pitch><step>A</step><octave>4</octave></pitch><duration>1</duration><voice>1</voice><type>eighth</type><notations></notations></note><note><chord></chord><pitch><step>E</step><octave>5</octave></pitch><duration>1</duration><voice>1</voice><type>eighth</type><notations></notations></note><note><rest></rest><duration>1</duration><voice>1</voice></note><note><pitch><step>C</step><octave>4</octave></pitch><duration>1</duration><voice>1</voice><type>eighth</type><notations></notations></note><note><chord></chord><pitch><step>E</step><octave>4</octave></pitch><duration>1</duration><voice>1</voice><type>eighth</type><notations></notations></note><note><pitch><step>B</step><alter>-1</alter><octave>4</octave></pitch><duration>1</duration><voice>1</voice><type>eighth</type><notations></notations></note><note><chord></chord><pitch><step>E</step><octave>5</octave></pitch><duration>1</duration><voice>1</voice><type>eighth</type><notations></notations></note><note><rest></rest><duration>1</duration><voice>1</voice></note><note><pitch><step>C</step><octave>4</octave></pitch><duration>1</duration><voice>1</voice><type>eighth</type><notations></notations></note><note><chord></chord><pitch><step>E</step><octave>4</octave></pitch><duration>1</duration><voice>1</voice><type>eighth</type><notations></notations></note><note><chord></chord><pitch><step>B</step><alter>-1</alter><octave>4</octave></pitch><duration>1</duration><voice>1</voice><type>eighth</type><notations></notations></note></measure><measure number="7"><note><pitch><step>D</step><octave>4</octave></pitch><duration>1</duration><voice>1</voice><type>eighth</type><notations></notations></note><note><rest></rest><duration>1</duration><voice>1</voice></note><note><pitch><step>A</step><alter>-1</alter><octave>4</octave></pitch><duration>1</duration><voice>1</voice><type>eighth</type><notations></notations></note><note><pitch><step>A</step><octave>4</octave></pitch><duration>1</duration><voice>1</voice><type>eighth</type><notations></notations></note><note><chord></chord><pitch><step>C</step><octave>5</octave></pitch><duration>1</duration><voice>1</voice><type>eighth</type><notations></notations></note><note><rest></rest><duration>1</duration><voice>1</voice></note><note><pitch><step>A</step><alter>-1</alter><octave>4</octave></pitch><duration>1</duration><voice>1</voice><type>eighth</type><notations></notations></note><note><chord></chord><pitch><step>G</step><octave>5</octave></pitch><duration>1</duration><voice>1</voice><type>eighth</type><notations></notations></note><note><rest></rest><duration>1</duration><voice>1</voice></note><note><pitch><step>A</step><alter>-1</alter><octave>4</octave></pitch><duration>1</duration><voice>1</voice><type>eighth</type><notations></notations></note><note><chord></chord><pitch><step>E</step><alter>-1</alter><octave>5</octave></pitch><duration>1</duration><voice>1</voice><type>eighth</type><notations></notations></note></measure><measure number="8"><note><pitch><step>B</step><alter>-1</alter><octave>4</octave></pitch><duration>1</duration><voice>1</voice><type>eighth</type><notations></notations></note><note><chord></chord><pitch><step>E</step><octave>5</octave></pitch><duration>1</duration><voice>1</voice><type>eighth</type><notations></notations></note><note><rest></rest><duration>1</duration><voice>1</voice></note><note><pitch><step>A</step><alter>-1</alter><octave>4</octave></pitch><duration>1</duration><voice>1</voice><type>eighth</type><notations></notations></note><note><chord></chord><pitch><step>D</step><octave>5</octave></pitch><duration>1</duration><voice>1</voice><type>eighth</type><notations></notations></note><note><rest></rest><duration>1</duration><voice>1</voice></note><note><pitch><step>A</step><octave>4</octave></pitch><duration>1</duration><voice>1</voice><type>eighth</type><notations></notations></note><note><pitch><step>B</step><alter>-1</alter><octave>4</octave></pitch><duration>1</duration><voice>1</voice><type>eighth</type><notations></notations></note><note><rest></rest><duration>1</duration><voice>1</voice></note><note><pitch><step>A</step><octave>4</octave></pitch><duration>1</duration><voice>1</voice><type>eighth</type><notations></notations></note></measure><measure number="9"><note><pitch><step>B</step><alter>-1</alter><octave>4</octave></pitch><duration>1</duration><voice>1</voice><type>eighth</type><notations></notations></note><note><pitch><step>F</step><octave>4</octave></pitch><duration>1</duration><voice>1</voice><type>eighth</type><notations></notations></note><note><rest></rest><duration>1</duration><voice>1</voice></note><note><pitch><step>A</step><octave>4</octave></pitch><duration>1</duration><voice>1</voice><type>eighth</type><notations></notations></note><note><pitch><step>F</step><octave>4</octave></pitch><duration>1</duration><voice>1</voice><type>eighth</type><notations></notations></note><note><rest></rest><duration>1</duration><voice>1</voice></note><note><pitch><step>A</step><octave>4</octave></pitch><duration>1</duration><voice>1</voice><type>eighth</type><notations></notations></note><note><pitch><step>D</step><octave>4</octave></pitch><duration>1</duration><voice>1</voice><type>eighth</type><notations></notations></note><note><chord></chord><pitch><step>F</step><octave>4</octave></pitch><duration>1</duration><voice>1</voice><type>eighth</type><notations></notations></note></measure><measure number="10"><note><rest></rest><duration>1</duration><voice>1</voice></note><note><pitch><step>A</step><octave>4</octave></pitch><duration>1</duration><voice>1</voice><type>eighth</type><notations></notations></note><note><chord></chord><pitch><step>E</step><octave>5</octave></pitch><duration>1</duration><voice>1</voice><type>eighth</type><notations></notations></note><note><chord></chord><pitch><step>G</step><octave>5</octave></pitch><duration>1</duration><voice>1</voice><type>eighth</type><notations></notations></note><note><rest></rest><duration>1</duration><voice>1</voice></note><note><pitch><step>A</step><octave>4</octave></pitch><duration>1</duration><voice>1</voice><type>eighth</type><notations></notations></note><note><chord></chord><pitch><step>E</step><octave>5</octave></pitch><duration>1</duration><voice>1</voice><type>eighth</type><notations></notations></note><note><pitch><step>E</step><octave>4</octave></pitch><duration>1</duration><voice>1</voice><type>eighth</type><notations></notations></note><note><chord></chord><pitch><step>B</step><alter>-1</alter><octave>4</octave></pitch><duration>1</duration><voice>1</voice><type>eighth</type><notations></notations></note><note><pitch><step>A</step><octave>4</octave></pitch><duration>1</duration><voice>1</voice><type>eighth</type><notations></notations></note><note><chord></chord><pitch><step>E</step><octave>5</octave></pitch><duration>1</duration><voice>1</voice><type>eighth</type><notations></notations></note><note><chord></chord><pitch><step>G</step><octave>5</octave></pitch><duration>1</duration><voice>1</voice><type>eighth</type><notations></notations></note><note><rest></rest><duration>1</duration><voice>1</voice></note><note><pitch><step>A</step><octave>4</octave></pitch><duration>1</duration><voice>1</voice><type>eighth</type><notations></notations></note><note><chord></chord><pitch><step>C</step><octave>5</octave></pitch><duration>1</duration><voice>1</voice><type>eighth</type><notations></notations></note></measure><measure number="11"><note><pitch><step>B</step><alter>-1</alter><octave>4</octave></pitch><duration>1</duration><voice>1</voice><type>eighth</type><notations></notations></note><note><chord></chord><pitch><step>D</step><octave>5</octave></pitch><duration>1</duration><voice>1</voice><type>eighth</type><notations></notations></note><note><rest></rest><duration>1</duration><voice>1</voice></note><note><pitch><step>A</step><octave>4</octave></pitch><duration>1</duration><voice>1</voice><type>eighth</type><notations></notations></note><note><chord></chord><pitch><step>C</step><octave>5</octave></pitch><duration>1</duration><voice>1</voice><type>eighth</type><notations></notations></note><note><chord></chord><pitch><step>G</step><octave>5</octave></pitch><duration>1</duration><voice>1</voice><type>eighth</type><notations></notations></note><note><rest></rest><duration>1</duration><voice>1</voice></note><note><pitch><step>A</step><octave>4</octave></pitch><duration>1</duration><voice>1</voice><type>eighth</type><notations></notations></note><note><chord></chord><pitch><step>C</step><octave>5</octave></pitch><duration>1</duration><voice>1</voice><type>eighth</type><notations></notations></note><note><pitch><step>E</step><alter>-1</alter><octave>4</octave></pitch><duration>1</duration><voice>1</voice><type>eighth</type><notations></notations></note><note><chord></chord><pitch><step>B</step><alter>-1</alter><octave>4</octave></pitch><duration>1</duration><voice>1</voice><type>eighth</type><notations></notations></note><note><chord></chord><pitch><step>D</step><octave>5</octave></pitch><duration>1</duration><voice>1</voice><type>eighth</type><notations></notations></note><note><rest></rest><duration>1</duration><voice>1</voice></note><note><pitch><step>A</step><octave>4</octave></pitch><duration>1</duration><voice>1</voice><type>eighth</type><notations></notations></note><note><chord></chord><pitch><step>D</step><octave>5</octave></pitch><duration>1</duration><voice>1</voice><type>eighth</type><notations></notations></note></measure><measure number="12"><note><rest></rest><duration>1</duration><voice>1</voice></note><note><pitch><step>A</step><octave>4</octave></pitch><duration>1</duration><voice>1</voice><type>eighth</type><notations></notations></note><note><chord></chord><pitch><step>D</step><octave>5</octave></pitch><duration>1</duration><voice>1</voice><type>eighth</type><notations></notations></note><note><chord></chord><pitch><step>F</step><octave>5</octave></pitch><duration>1</duration><voice>1</voice><type>eighth</type><notations></notations></note><note><rest></rest><duration>1</duration><voice>1</voice></note><note><pitch><step>A</step><octave>4</octave></pitch><duration>1</duration><voice>1</voice><type>eighth</type><notations></notations></note><note><chord></chord><pitch><step>F</step><octave>5</octave></pitch><duration>1</duration><voice>1</voice><type>eighth</type><notations></notations></note><note><pitch><step>B</step><alter>-1</alter><octave>4</octave></pitch><duration>1</duration><voice>1</voice><type>eighth</type><notations></notations></note><note><chord></chord><pitch><step>F</step><octave>5</octave></pitch><duration>1</duration><voice>1</voice><type>eighth</type><notations></notations></note><note><rest></rest><duration>1</duration><voice>1</voice></note><note><pitch><step>A</step><octave>4</octave></pitch><duration>1</duration><voice>1</voice><type>eighth</type><notations></notations></note><note><chord></chord><pitch><step>F</step><octave>5</octave></pitch><duration>1</duration><voice>1</voice><type>eighth</type><notations></notations></note><note><pitch><step>B</step><alter>-1</alter><octave>4</octave></pitch><duration>1</duration><voice>1</voice><type>eighth</type><notations></notations></note><note><chord></chord><pitch><step>G</step><octave>5</octave></pitch><duration>1</duration><voice>1</voice><type>eighth</type><notations></notations></note></measure><measure number="13"><note><pitch><step>E</step><octave>4</octave></pitch><duration>1</duration><voice>1</voice><type>eighth</type><notations></notations></note><note><chord></chord><pitch><step>C</step><octave>5</octave></pitch><duration>1</duration><voice>1</voice><type>eighth</type><notations></notations></note><note><rest></rest><duration>1</duration><voice>1</voice></note><note><pitch><step>A</step><octave>4</octave></pitch><duration>1</duration><voice>1</voice><type>eighth</type><notations></notations></note><note><chord></chord><pitch><step>F</step><octave>5</octave></pitch><duration>1</duration><voice>1</voice><type>eighth</type><notations></notations></note><note><pitch><step>B</step><octave>4</octave></pitch><duration>1</duration><voice>1</voice><type>eighth</type><notations></notations></note><note><chord></chord><pitch><step>F</step><octave>5</octave></pitch><duration>1</duration><voice>1</voice><type>eighth</type><notations></notations></note><note><rest></rest><duration>1</duration><voice>1</voice></note><note><pitch><step>B</step><alter>-1</alter><octave>4</octave></pitch><duration>1</duration><voice>1</voice><type>eighth</type><notations></notations></note><note><rest></rest><duration>1</duration><voice>1</voice></note><note><pitch><step>B</step><alter>-1</alter><octave>4</octave></pitch><duration>1</duration><voice>1</voice><type>eighth</type><notations></notations></note></measure><measure number="14"><note><pitch><step>E</step><octave>4</octave></pitch><duration>1</duration><voice>1</voice><type>eighth</type><notations></notations></note><note><chord></chord><pitch><step>B</step><alter>-1</alter><octave>4</octave></pitch><duration>1</duration><voice>1</voice><type>eighth</type><notations></notations></note><note><rest></rest><duration>1</duration><voice>1</voice></note><note><pitch><step>B</step><alter>-1</alter><octave>4</octave></pitch><duration>1</duration><voice>1</voice><type>eighth</type><notations></notations></note><note><pitch><step>D</step><octave>4</octave></pitch><duration>1</duration><voice>1</voice><type>eighth</type><notations></notations></note><note><chord></chord><pitch><step>G</step><octave>4</octave></pitch><duration>1</duration><voice>1</voice><type>eighth</type><notations></notations></note><note><rest></rest><duration>1</duration><voice>1</voice></note><note><pitch><step>B</step><alter>-1</alter><octave>4</octave></pitch><duration>1</duration><voice>1</voice><type>eighth</type><notations></notations></note><note><pitch><step>E</step><alter>-1</alter><octave>4</octave></pitch><duration>1</duration><voice>1</voice><type>eighth</type><notations></notations></note><note><rest></rest><duration>1</duration><voice>1</voice></note></measure><measure number="15"><note><pitch><step>B</step><alter>-1</alter><octave>4</octave></pitch><duration>1</duration><voice>1</voice><type>eighth</type><notations></notations></note><note><chord></chord><pitch><step>F</step><octave>5</octave></pitch><duration>1</duration><voice>1</voice><type>eighth</type><notations></notations></note><note><chord></chord><pitch><step>A</step><octave>5</octave></pitch><duration>1</duration><voice>1</voice><type>eighth</type><notations></notations></note><note><rest></rest><duration>1</duration><voice>1</voice></note><note><pitch><step>B</step><alter>-1</alter><octave>4</octave></pitch><duration>1</duration><voice>1</voice><type>eighth</type><notations></notations></note><note><chord></chord><pitch><step>F</step><octave>5</octave></pitch><duration>1</duration><voice>1</voice><type>eighth</type><notations></notations></note><note><pitch><step>B</step><octave>4</octave></pitch><duration>1</duration><voice>1</voice><type>eighth</type><notations></notations></note><note><chord></chord><pitch><step>F</step><octave>5</octave></pitch><duration>1</duration><voice>1</voice><type>eighth</type><notations></notations></note><note><rest></rest><duration>1</duration><voice>1</voice></note><note><pitch><step>B</step><alter>-1</alter><octave>4</octave></pitch><duration>1</duration><voice>1</voice><type>eighth</type><notations></notations></note><note><chord></chord><pitch><step>D</step><octave>5</octave></pitch><duration>1</duration><voice>1</voice><type>eighth</type><notations></notations></note><note><rest></rest><duration>1</duration><voice>1</voice></note><note><pitch><step>B</step><alter>-1</alter><octave>4</octave></pitch><duration>1</duration><voice>1</voice><type>eighth</type><notations></notations></note><note><chord></chord><pitch><step>D</step><octave>5</octave></pitch><duration>1</duration><voice>1</voice><type>eighth</type><notations></notations></note></measure><measure number="16"><note><pitch><step>B</step><alter>-1</alter><octave>4</octave></pitch><duration>1</duration><voice>1</voice><type>eighth</type><notations></notations></note><note><chord></chord><pitch><step>D</step><octave>5</octave></pitch><duration>1</duration><voice>1</voice><type>eighth</type><notations></notations></note><note><rest></rest><duration>1</duration><voice>1</voice></note><note><pitch><step>B</step><alter>-1</alter><octave>4</octave></pitch><duration>1</duration><voice>1</voice><type>eighth</type><notations></notations></note><note><chord></chord><pitch><step>D</step><octave>5</octave></pitch><duration>1</duration><voice>1</voice><type>eighth</type><notations></notations></note><note><chord></chord><pitch><step>A</step><octave>5</octave></pitch><duration>1</duration><voice>1</voice><type>eighth</type><notations></notations></note><note><pitch><step>A</step><alter>-1</alter><octave>4</octave></pitch><duration>1</duration><voice>1</voice><type>eighth</type><notations></notations></note><note><rest></rest><duration>1</duration><voice>1</voice></note><note><pitch><step>B</step><alter>-1</alter><octave>4</octave></pitch><duration>1</duration><voice>1</voice><type>eighth</type><notations></notations></note><note><chord></chord><pitch><step>D</step><octave>5</octave></pitch><duration>1</duration><voice>1</voice><type>eighth</type><notations></notations></note><note><pitch><step>E</step><octave>4</octave></pitch><duration>1</duration><voice>1</voice><type>eighth</type><notations></notations></note><note><chord></chord><pitch><step>C</step><octave>5</octave></pitch><duration>1</duration><voice>1</voice><type>eighth</type><notations></notations></note><note><rest></rest><duration>1</duration><voice>1</voice></note></measure><measure number="17"><note><pitch><step>B</step><alter>-1</alter><octave>4</octave></pitch><duration>1</duration><voice>1</voice><type>eighth</type><notations></notations></note><note><chord></chord><pitch><step>E</step><octave>5</octave></pitch><duration>1</duration><voice>1</voice><type>eighth</type><notations></notations></note><note><pitch><step>A</step><alter>-1</alter><octave>4</octave></pitch><duration>1</duration><voice>1</voice><type>eighth</type><notations></notations></note><note><chord></chord><pitch><step>E</step><alter>-1</alter><octave>5</octave></pitch><duration>1</duration><voice>1</voice><type>eighth</type><notations></notations></note><note><rest></rest><duration>1</duration><voice>1</voice></note><note><pitch><step>B</step><alter>-1</alter><octave>4</octave></pitch><duration>1</duration><voice>1</voice><type>eighth</type><notations></notations></note><note><chord></chord><pitch><step>E</step><octave>5</octave></pitch><duration>1</duration><voice>1</voice><type>eighth</type><notations></notations></note><note><chord></chord><pitch><step>G</step><octave>5</octave></pitch><duration>1</duration><voice>1</voice><type>eighth</type><notations></notations></note><note><rest></rest><duration>1</duration><voice>1</voice></note><note><pitch><step>B</step><alter>-1</alter><octave>4</octave></pitch><duration>1</duration><voice>1</voice><type>eighth</type><notations></notations></note><note><chord></chord><pitch><step>G</step><octave>5</octave></pitch><duration>1</duration><voice>1</voice><type>eighth</type><notations></notations></note><note><pitch><step>A</step><octave>4</octave></pitch><duration>1</duration><voice>1</voice><type>eighth</type><notations></notations></note><note><rest></rest><duration>1</duration><voice>1</voice></note></measure><measure number="18"><note><pitch><step>B</step><alter>-1</alter><octave>4</octave></pitch><duration>1</duration><voice>1</voice><type>eighth</type><notations></notations></note><note><chord></chord><pitch><step>G</step><octave>5</octave></pitch><duration>1</duration><voice>1</voice><type>eighth</type><notations></notations></note><note><pitch><step>A</step><octave>4</octave></pitch><duration>1</duration><voice>1</voice><type>eighth</type><notations></notations></note><note><chord></chord><pitch><step>C</step><octave>5</octave></pitch><duration>1</duration><voice>1</voice><type>eighth</type><notations></notations></note><note><chord></chord><pitch><step>G</step><octave>5</octave></pitch><duration>1</duration><voice>1</voice><type>eighth</type><notations></notations></note><note><rest></rest><duration>1</duration><voice>1</voice></note><note><pitch><step>B</step><alter>-1</alter><octave>4</octave></pitch><duration>1</duration><voice>1</voice><type>eighth</type><notations></notations></note><note><chord></chord><pitch><step>G</step><octave>5</octave></pitch><duration>1</duration><voice>1</voice><type>eighth</type><notations></notations></note><note><pitch><step>E</step><octave>4</octave></pitch><duration>1</duration><voice>1</voice><type>eighth</type><notations></notations></note><note><rest></rest><duration>1</duration><voice>1</voice></note><note><pitch><step>F</step><octave>4</octave></pitch><duration>1</duration><voice>1</voice><type>eighth</type><notations></notations></note><note><rest></rest><duration>1</duration><voice>1</voice></note></measure><measure number="19"><note><pitch><step>F</step><octave>4</octave></pitch><duration>1</duration><voice>1</voice><type>eighth</type><notations></notations></note><note><pitch><step>F</step><octave>4</octave></pitch><duration>1</duration><voice>1</voice><type>eighth</type><notations></notations></note><note><rest></rest><duration>1</duration><voice>1</voice></note><note><pitch><step>F</step><octave>4</octave></pitch><duration>1</duration><voice>1</voice><type>eighth</type><notations></notations></note><note><pitch><step>G</step><octave>4</octave></pitch><duration>1</duration><voice>1</voice><type>eighth</type><notations></notations></note><note><chord></chord><pitch><step>B</step><alter>-1</alter><octave>4</octave></pitch><duration>1</duration><voice>1</voice><type>eighth</type><notations></notations></note><note><rest></rest><duration>1</duration><voice>1</voice></note><note><pitch><step>F</step><octave>4</octave></pitch><duration>1</duration><voice>1</voice><type>eighth</type><notations></notations></note><note><chord></chord><pitch><step>C</step><octave>5</octave></pitch><duration>1</duration><voice>1</voice><type>eighth</type><notations></notations></note><note><pitch><step>B</step><alter>-1</alter><octave>4</octave></pitch><duration>1</duration><voice>1</voice><type>eighth</type><notations></notations></note><note><chord></chord><pitch><step>D</step><octave>5</octave></pitch><duration>1</duration><voice>1</voice><type>eighth</type><notations></notations></note></measure><measure number="20"><note><rest></rest><duration>1</duration><voice>1</voice></note><note><pitch><step>F</step><octave>4</octave></pitch><duration>1</duration><voice>1</voice><type>eighth</type><notations></notations></note><note><chord></chord><pitch><step>A</step><octave>4</octave></pitch><duration>1</duration><voice>1</voice><type>eighth</type><notations></notations></note><note><rest></rest><duration>1</duration><voice>1</voice></note><note><pitch><step>F</step><octave>4</octave></pitch><duration>1</duration><voice>1</voice><type>eighth</type><notations></notations></note><note><chord></chord><pitch><step>A</step><octave>4</octave></pitch><duration>1</duration><voice>1</voice><type>eighth</type><notations></notations></note><note><pitch><step>A</step><alter>-1</alter><octave>4</octave></pitch><duration>1</duration><voice>1</voice><type>eighth</type><notations></notations></note><note><chord></chord><pitch><step>E</step><alter>-1</alter><octave>5</octave></pitch><duration>1</duration><voice>1</voice><type>eighth</type><notations></notations></note><note><rest></rest><duration>1</duration><voice>1</voice></note><note><pitch><step>F</step><octave>4</octave></pitch><duration>1</duration><voice>1</voice><type>eighth</type><notations></notations></note><note><chord></chord><pitch><step>B</step><alter>-1</alter><octave>4</octave></pitch><duration>1</duration><voice>1</voice><type>eighth</type><notations></notations></note><note><pitch><step>A</step><octave>4</octave></pitch><duration>1</duration><voice>1</voice><type>eighth</type><notations></notations></note><note><chord></chord><pitch><step>F</step><octave>5</octave></pitch><duration>1</duration><voice>1</voice><type>eighth</type><notations></notations></note></measure><measure number="21"><note><rest></rest><duration>1</duration><voice>1</voice></note><note><pitch><step>F</step><octave>4</octave></pitch><duration>1</duration><voice>1</voice><type>eighth</type><notations></notations></note><note><chord></chord><pitch><step>B</step><alter>-1</alter><octave>4</octave></pitch><duration>1</duration><voice>1</voice><type>eighth</type><notations></notations></note><note><pitch><step>B</step><alter>-1</alter><octave>4</octave></pitch><duration>1</duration><voice>1</voice><type>eighth</type><notations></notations></note><note><chord></chord><pitch><step>D</step><octave>5</octave></pitch><duration>1</duration><voice>1</voice><type>eighth</type><notations></notations></note><note><rest></rest><duration>1</duration><voice>1</voice></note><note><pitch><step>F</step><octave>4</octave></pitch><duration>1</duration><voice>1</voice><type>eighth</type><notations></notations></note><note><chord></chord><pitch><step>B</step><alter>-1</alter><octave>4</octave></pitch><duration>1</duration><voice>1</voice><type>eighth</type><notations></notations></note><note><chord></chord><pitch><step>D</step><octave>5</octave></pitch><duration>1</duration><voice>1</voice><type>eighth</type><notations></notations></note><note><pitch><step>D</step><octave>4</octave></pitch><duration>1</duration><voice>1</voice><type>eighth</type><notations></notations></note><note><chord></chord><pitch><step>F</step><octave>4</octave></pitch><duration>1</duration><voice>1</voice><type>eighth</type><notations></notations></note><note><rest></rest><duration>1</duration><voice>1</voice></note><note><pitch><step>F</step><octave>4</octave></pitch><duration>1</duration><voice>1</voice><type>eighth</type><notations></notations></note><note><chord></chord><pitch><step>D</step><octave>5</octave></pitch><duration>1</duration><voice>1</voice><type>eighth</type><notations></notations></note></measure><measure number="22"><note><rest></rest><duration>1</duration><voice>1</voice></note><note><pitch><step>F</step><octave>4</octave></pitch><duration>1</duration><voice>1</voice><type>eighth</type><notations></notations></note><note><chord></chord><pitch><step>A</step><octave>4</octave></pitch><duration>1</duration><voice>1</voice><type>eighth</type><notations></notations></note><note><chord></chord><pitch><step>D</step><octave>5</octave></pitch><duration>1</duration><voice>1</voice><type>eighth</type><notations></notations></note><note><rest></rest><duration>1</duration><voice>1</voice></note><note><pitch><step>F</step><octave>4</octave></pitch><duration>1</duration><voice>1</voice><type>eighth</type><notations></notations></note><note><chord></chord><pitch><step>D</step><octave>5</octave></pitch><duration>1</duration><voice>1</voice><type>eighth</type><notations></notations></note><note><pitch><step>D</step><octave>4</octave></pitch><duration>1</duration><voice>1</voice><type>eighth</type><notations></notations></note><note><chord></chord><pitch><step>F</step><octave>4</octave></pitch><duration>1</duration><voice>1</voice><type>eighth</type><notations></notations></note><note><rest></rest><duration>1</duration><voice>1</voice></note><note><pitch><step>F</step><octave>4</octave></pitch><duration>1</duration><voice>1</voice><type>eighth</type><notations></notations></note><note><chord></chord><pitch><step>D</step><octave>5</octave></pitch><duration>1</duration><voice>1</voice><type>eighth</type><notations></notations></note><note><pitch><step>B</step><octave>4</octave></pitch><duration>1</duration><voice>1</voice><type>eighth</type><notations></notations></note><note><chord></chord><pitch><step>F</step><octave>5</octave></pitch><duration>1</duration><voice>1</voice><type>eighth</type><notations></notations></note></measure><measure number="23"><note><rest></rest><duration>1</duration><voice>1</voice></note><note><pitch><step>G</step><octave>4</octave></pitch><duration>1</duration><voice>1</voice><type>eighth</type><notations></notations></note><note><pitch><step>F</step><octave>4</octave></pitch><duration>1</duration><voice>1</voice><type>eighth</type><notations></notations></note><note><pitch><step>A</step><octave>4</octave></pitch><duration>1</duration><voice>1</voice><type>eighth</type><notations></notations></note><note><chord></chord><pitch><step>D</step><octave>5</octave></pitch><duration>1</duration><voice>1</voice><type>eighth</type><notations></notations></note><note><rest></rest><duration>1</duration><voice>1</voice></note><note><pitch><step>G</step><octave>4</octave></pitch><duration>1</duration><voice>1</voice><type>eighth</type><notations></notations></note><note><chord></chord><pitch><step>F</step><octave>5</octave></pitch><duration>1</duration><voice>1</voice><type>eighth</type><notations></notations></note><note><pitch><step>E</step><octave>4</octave></pitch><duration>1</duration><voice>1</voice><type>eighth</type><notations></notations></note><note><rest></rest><duration>1</duration><voice>1</voice></note></measure><measure number="24"><note><pitch><step>G</step><octave>4</octave></pitch><duration>1</duration><voice>1</voice><type>eighth</type><notations></notations></note><note><pitch><step>D</step><octave>4</octave></pitch><duration>1</duration><voice>1</voice><type>eighth</type><notations></notations></note><note><rest></rest><duration>1</duration><voice>1</voice></note><note><pitch><step>G</step><octave>4</octave></pitch><duration>1</duration><voice>1</voice><type>eighth</type><notations></notations></note><note><pitch><step>D</step><octave>4</octave></pitch><duration>1</duration><voice>1</voice><type>eighth</type><notations></notations></note><note><chord></chord><pitch><step>F</step><octave>4</octave></pitch><duration>1</duration><voice>1</voice><type>eighth</type><notations></notations></note><note><chord></chord><pitch><step>C</step><octave>5</octave></pitch><duration>1</duration><voice>1</voice><type>eighth</type><notations></notations></note><note><rest></rest><duration>1</duration><voice>1</voice></note><note><pitch><step>G</step><octave>4</octave></pitch><duration>1</duration><voice>1</voice><type>eighth</type><notations></notations></note><note><chord></chord><pitch><step>D</step><octave>5</octave></pitch><duration>1</duration><voice>1</voice><type>eighth</type><notations></notations></note><note><pitch><step>G</step><octave>4</octave></pitch><duration>1</duration><voice>1</voice><type>eighth</type><notations></notations></note></measure><measure number="25"><note><rest></rest><duration>1</duration><voice>1</voice></note><note><pitch><step>G</step><octave>4</octave></pitch><duration>1</duration><voice>1</voice><type>eighth</type><notations></notations></note><note><chord></chord><pitch><step>B</step><alter>-1</alter><octave>4</octave></pitch><duration>1</duration><voice>1</voice><type>eighth</type><notations></notations></note><note><rest></rest><duration>1</duration><voice>1</voice></note><note><pitch><step>G</step><octave>4</octave></pitch><duration>1</duration><voice>1</voice><type>eighth</type><notations></notations></note><note><chord></chord><pitch><step>B</step><alter>-1</alter><octave>4</octave></pitch><duration>1</duration><voice>1</voice><type>eighth</type><notations></notations></note><note><pitch><step>F</step><octave>4</octave></pitch><duration>1</duration><voice>1</voice><type>eighth</type><notations></notations></note><note><chord></chord><pitch><step>A</step><octave>4</octave></pitch><duration>1</duration><voice>1</voice><type>eighth</type><notations></notations></note><note><rest></rest><duration>1</duration><voice>1</voice></note><note><pitch><step>G</step><octave>4</octave></pitch><duration>1</duration><voice>1</voice><type>eighth</type><notations></notations></note><note><chord></chord><pitch><step>C</step><octave>5</octave></pitch><duration>1</duration><voice>1</voice><type>eighth</type><notations></notations></note><note><pitch><step>A</step><octave>4</octave></pitch><duration>1</duration><voice>1</voice><type>eighth</type><notations></notations></note></measure><measure number="26"><note><rest></rest><duration>1</duration><voice>1</voice></note><note><pitch><step>C</step><octave>4</octave></pitch><duration>1</duration><voice>1</voice><type>eighth</type><notations></notations></note><note><chord></chord><pitch><step>F</step><octave>4</octave></pitch><duration>1</duration><voice>1</voice><type>eighth</type><notations></notations></note><note><rest></rest><duration>1</duration><voice>1</voice></note><note><pitch><step>C</step><octave>4</octave></pitch><duration>1</duration><voice>1</voice><type>eighth</type><notations></notations></note><note><chord></chord><pitch><step>F</step><octave>4</octave></pitch><duration>1</duration><voice>1</voice><type>eighth</type><notations></notations></note><note><pitch><step>A</step><octave>4</octave></pitch><duration>1</duration><voice>1</voice><type>eighth</type><notations></notations></note><note><chord></chord><pitch><step>D</step><octave>5</octave></pitch><duration>1</duration><voice>1</voice><type>eighth</type><notations></notations></note><note><rest></rest><duration>1</duration><voice>1</voice></note><note><pitch><step>C</step><octave>4</octave></pitch><duration>1</duration><voice>1</voice><type>eighth</type><notations></notations></note><note><chord></chord><pitch><step>F</step><octave>4</octave></pitch><duration>1</duration><voice>1</voice><type>eighth</type><notations></notations></note><note><pitch><step>B</step><alter>-1</alter><octave>4</octave></pitch><duration>1</duration><voice>1</voice><type>eighth</type><notations></notations></note><note><chord></chord><pitch><step>D</step><octave>5</octave></pitch><duration>1</duration><voice>1</voice><type>eighth</type><notations></notations></note><note><chord></chord><pitch><step>A</step><octave>5</octave></pitch><duration>1</duration><voice>1</voice><type>eighth</type><notations></notations></note></measure><measure number="27"><note><rest></rest><duration>1</duration><voice>1</voice></note><note><pitch><step>C</step><octave>4</octave></pitch><duration>1</duration><voice>1</voice><type>eighth</type><notations></notations></note><note><chord></chord><pitch><step>F</step><octave>4</octave></pitch><duration>1</duration><voice>1</voice><type>eighth</type><notations></notations></note><note><pitch><step>G</step><octave>4</octave></pitch><duration>1</duration><voice>1</voice><type>eighth</type><notations></notations></note><note><rest></rest><duration>1</duration><voice>1</voice></note><note><pitch><step>C</step><octave>4</octave></pitch><duration>1</duration><voice>1</voice><type>eighth</type><notations></notations></note><note><chord></chord><pitch><step>F</step><octave>4</octave></pitch><duration>1</duration><voice>1</voice><type>eighth</type><notations></notations></note><note><pitch><step>E</step><octave>4</octave></pitch><duration>1</duration><voice>1</voice><type>eighth</type><notations></notations></note><note><chord></chord><pitch><step>B</step><alter>-1</alter><octave>4</octave></pitch><duration>1</duration><voice>1</voice><type>eighth</type><notations></notations></note><note><chord></chord><pitch><step>D</step><octave>5</octave></pitch><duration>1</duration><voice>1</voice><type>eighth</type><notations></notations></note><note><rest></rest><duration>1</duration><voice>1</voice></note><note><pitch><step>E</step><octave>4</octave></pitch><duration>1</duration><voice>1</voice><type>eighth</type><notations></notations></note></measure><measure number="28"><note><pitch><step>A</step><octave>4</octave></pitch><duration>1</duration><voice>1</voice><type>eighth</type><notations></notations></note><note><pitch><step>B</step><alter>-1</alter><octave>4</octave></pitch><duration>1</duration><voice>1</voice><type>eighth</type><notations></notations></note><note><rest></rest><duration>1</duration><voice>1</voice></note><note><pitch><step>E</step><octave>4</octave></pitch><duration>1</duration><voice>1</voice><type>eighth</type><notations></notations></note><note><pitch><step>B</step><alter>-1</alter><octave>4</octave></pitch><duration>1</duration><voice>1</voice><type>eighth</type><notations></notations></note><note><chord></chord><pitch><step>D</step><octave>5</octave></pitch><duration>1</duration><voice>1</voice><type>eighth</type><notations></notations></note><note><rest></rest><duration>1</duration><voice>1</voice></note><note><pitch><step>E</step><octave>4</octave></pitch><duration>1</duration><voice>1</voice><type>eighth</type><notations></notations></note><note><pitch><step>B</step><alter>-1</alter><octave>4</octave></pitch><duration>1</duration><voice>1</voice><type>eighth</type><notations></notations></note><note><chord></chord><pitch><step>D</step><octave>5</octave></pitch><duration>1</duration><voice>1</voice><type>eighth</type><notations></notations></note></measure><measure number="29"><note><pitch><step>D</step><octave>4</octave></pitch><duration>1</duration><voice>1</voice><type>eighth</type><notations></notations></note><note><rest></rest><duration>1</duration><voice>1</voice></note><note><pitch><step>E</step><octave>4</octave></pitch><duration>1</duration><voice>1</voice><type>eighth</type><notations></notations></note><note><chord></chord><pitch><step>D</step><octave>5</octave></pitch><duration>1</duration><voice>1</voice><type>eighth</type><notations></notations></note><note><rest></rest><duration>1</duration><voice>1</voice></note><note><pitch><step>E</step><octave>4</octave></pitch><duration>1</duration><voice>1</voice><type>eighth</type><notations></notations></note><note><pitch><step>G</step><octave>4</octave></pitch><duration>1</duration><voice>1</voice><type>eighth</type><notations></notations></note><note><rest></rest><duration>1</duration><voice>1</voice></note><note><pitch><step>E</step><octave>4</octave></pitch><duration>1</duration><voice>1</voice><type>eighth</type><notations></notations></note><note><chord></chord><pitch><step>G</step><octave>4</octave></pitch><duration>1</duration><voice>1</voice><type>eighth</type><notations></notations></note></measure><measure number="30"><note><rest></rest><duration>1</duration><voice>1</voice></note><note><pitch><step>E</step><octave>4</octave></pitch><duration>1</duration><voice>1</voice><type>eighth</type><notations></notations></note><note><chord></chord><pitch><step>G</step><octave>4</octave></pitch><duration>1</duration><voice>1</voice><type>eighth</type><notations></notations></note><note><pitch><step>B</step><alter>-1</alter><octave>4</octave></pitch><duration>1</duration><voice>1</voice><type>eighth</type><notations></notations></note><note><chord></chord><pitch><step>D</step><octave>5</octave></pitch><duration>1</duration><voice>1</voice><type>eighth</type><notations></notations></note><note><chord></chord><pitch><step>A</step><octave>5</octave></pitch><duration>1</duration><voice>1</voice><type>eighth</type><notations></notations></note><note><rest></rest><duration>1</duration><voice>1</voice></note><note><pitch><step>E</step><octave>4</octave></pitch><duration>1</duration><voice>1</voice><type>eighth</type><notations></notations></note><note><chord></chord><pitch><step>G</step><octave>4</octave></pitch><duration>1</duration><voice>1</voice><type>eighth</type><notations></notations></note><note><pitch><step>F</step><octave>4</octave></pitch><duration>1</duration><voice>1</voice><type>eighth</type><notations></notations></note><note><chord></chord><pitch><step>C</step><octave>5</octave></pitch><duration>1</duration><voice>1</voice><type>eighth</type><notations></notations></note><note><pitch><step>A</step><alter>-1</alter><octave>4</octave></pitch><duration>1</duration><voice>1</voice><type>eighth</type><notations></notations></note><note><rest></rest><duration>1</duration><voice>1</voice></note></measure><measure number="31"><note><pitch><step>E</step><octave>4</octave></pitch><duration>1</duration><voice>1</voice><type>eighth</type><notations></notations></note><note><chord></chord><pitch><step>G</step><octave>4</octave></pitch><duration>1</duration><voice>1</voice><type>eighth</type><notations></notations></note><note><pitch><step>G</step><octave>4</octave></pitch><duration>1</duration><voice>1</voice><type>eighth</type><notations></notations></note><note><chord></chord><pitch><step>B</step><alter>-1</alter><octave>4</octave></pitch><duration>1</duration><voice>1</voice><type>eighth</type><notations></notations></note><note><rest></rest><duration>1</duration><voice>1</voice></note><note><pitch><step>E</step><octave>4</octave></pitch><duration>1</duration><voice>1</voice><type>eighth</type><notations></notations></note><note><chord></chord><pitch><step>G</step><octave>4</octave></pitch><duration>1</duration><voice>1</voice><type>eighth</type><notations></notations></note><note><pitch><step>E</step><octave>4</octave></pitch><duration>1</duration><voice>1</voice><type>eighth</type><notations></notations></note><note><chord></chord><pitch><step>G</step><octave>4</octave></pitch><duration>1</duration><voice>1</voice><type>eighth</type><notations></notations></note><note><rest></rest><duration>1</duration><voice>1</voice></note><note><pitch><step>E</step><octave>4</octave></pitch><duration>1</duration><voice>1</voice><type>eighth</type><notations></notations></note><note><chord></chord><pitch><step>A</step><octave>4</octave></pitch><duration>1</duration><voice>1</voice><type>eighth</type><notations></notations></note><note><pitch><step>A</step><octave>4</octave></pitch><duration>1</duration><voice>1</voice><type>eighth</type><notations></notations></note></measure><measure number="32"><note><rest></rest><duration>1</duration><voice>1</voice></note><note><pitch><step>E</step><octave>4</octave></pitch><duration>1</duration><voice>1</voice><type>eighth</type><notations></notations></note><note><chord></chord><pitch><step>A</step><octave>4</octave></pitch><duration>1</duration><voice>1</voice><type>eighth</type><notations></notations></note><note><pitch><step>A</step><octave>4</octave></pitch><duration>1</duration><voice>1</voice><type>eighth</type><notations></notations></note><note><chord></chord><pitch><step>C</step><octave>5</octave></pitch><duration>1</duration><voice>1</voice><type>eighth</type><notations></notations></note><note><rest></rest><duration>1</duration><voice>1</voice></note><note><pitch><step>E</step><octave>4</octave></pitch><duration>1</duration><voice>1</voice><type>eighth</type><notations></notations></note><note><chord></chord><pitch><step>A</step><octave>4</octave></pitch><duration>1</duration><voice>1</voice><type>eighth</type><notations></notations></note><note><pitch><step>G</step><octave>4</octave></pitch><duration>1</duration><voice>1</voice><type>eighth</type><notations></notations></note><note><rest></rest><duration>1</duration><voice>1</voice></note><note><pitch><step>E</step><octave>4</octave></pitch><duration>1</duration><voice>1</voice><type>eighth</type><notations></notations></note><note><chord></chord><pitch><step>C</step><octave>5</octave></pitch><duration>1</duration><voice>1</voice><type>eighth</type><notations></notations></note></measure><measure number="33"><note><rest></rest><duration>1</duration><voice>1</voice></note><note><pitch><step>D</step><octave>4</octave></pitch><duration>1</duration><voice>1</voice><type>eighth</type><notations></notations></note><note><pitch><step>F</step><octave>4</octave></pitch><duration>1</duration><voice>1</voice><type>eighth</type><notations></notations></note><note><rest></rest><duration>1</duration><voice>1</voice></note><note><pitch><step>D</step><octave>4</octave></pitch><duration>1</duration><voice>1</voice><type>eighth</type><notations></notations></note><note><chord></chord><pitch><step>A</step><octave>4</octave></pitch><duration>1</duration><voice>1</voice><type>eighth</type><notations></notations></note><note><pitch><step>B</step><alter>-1</alter><octave>4</octave></pitch><duration>1</duration><voice>1</voice><type>eighth</type><notations></notations></note><note><chord></chord><pitch><step>D</step><octave>5</octave></pitch><duration>1</duration><voice>1</voice><type>eighth</type><notations></notations></note><note><rest></rest><duration>1</duration><voice>1</voice></note><note><pitch><step>D</step><octave>4</octave></pitch><duration>1</duration><voice>1</voice><type>eighth</type><notations></notations></note><note><chord></chord><pitch><step>A</step><octave>4</octave></pitch><duration>1</duration><voice>1</voice><type>eighth</type><notations></notations></note></measure><measure number="34"><note><pitch><step>B</step><alter>-1</alter><octave>4</octave></pitch><duration>1</duration><voice>1</voice><type>eighth</type><notations></notations></note><note><chord></chord><pitch><step>E</step><octave>5</octave></pitch><duration>1</duration><voice>1</voice><type>eighth</type><notations></notations></note><note><rest></rest><duration>1</duration><voice>1</voice></note><note><pitch><step>D</step><octave>4</octave></pitch><duration>1</duration><voice>1</voice><type>eighth</type><notations></notations></note><note><chord></chord><pitch><step>A</step><octave>4</octave></pitch><duration>1</duration><voice>1</voice><type>eighth</type><notations></notations></note><note><pitch><step>F</step><octave>4</octave></pitch><duration>1</duration><voice>1</voice><type>eighth</type><notations></notations></note><note><chord></chord><pitch><step>C</step><octave>5</octave></pitch><duration>1</duration><voice>1</voice><type>eighth</type><notations></notations></note><note><rest></rest><duration>1</duration><voice>1</voice></note><note><pitch><step>D</step><octave>4</octave></pitch><duration>1</duration><voice>1</voice><type>eighth</type><notations></notations></note><note><chord></chord><pitch><step>A</step><octave>4</octave></pitch><duration>1</duration><voice>1</voice><type>eighth</type><notations></notations></note><note><pitch><step>E</step><alter>-1</alter><octave>4</octave></pitch><duration>1</duration><voice>1</voice><type>eighth</type><notations></notations></note><note><chord></chord><pitch><step>G</step><octave>4</octave></pitch><duration>1</duration><voice>1</voice><type>eighth</type><notations></notations></note><note><rest></rest><duration>1</duration><voice>1</voice></note></measure><measure number="35"><note><pitch><step>D</step><octave>4</octave></pitch><duration>1</duration><voice>1</voice><type>eighth</type><notations></notations></note><note><chord></chord><pitch><step>F</step><octave>4</octave></pitch><duration>1</duration><voice>1</voice><type>eighth</type><notations></notations></note><note><pitch><step>A</step><alter>-1</alter><octave>4</octave></pitch><duration>1</duration><voice>1</voice><type>eighth</type><notations></notations></note><note><chord></chord><pitch><step>E</step><alter>-1</alter><octave>5</octave></pitch><duration>1</duration><voice>1</voice><type>eighth</type><notations></notations></note><note><pitch><step>B</step><alter>-1</alter><octave>4</octave></pitch><duration>1</duration><voice>1</voice><type>eighth</type><notations></notations></note><note><chord></chord><pitch><step>E</step><octave>5</octave></pitch><duration>1</duration><voice>1</voice><type>eighth</type><notations></notations></note><note><rest></rest><duration>1</duration><voice>1</voice></note><note><pitch><step>D</step><octave>4</octave></pitch><duration>1</duration><voice>1</voice><type>eighth</type><notations></notations></note><note><chord></chord><pitch><step>F</step><octave>4</octave></pitch><duration>1</duration><voice>1</voice><type>eighth</type><notations></notations></note><note><pitch><step>A</step><octave>4</octave></pitch><duration>1</duration><voice>1</voice><type>eighth</type><notations></notations></note><note><chord></chord><pitch><step>E</step><octave>5</octave></pitch><duration>1</duration><voice>1</voice><type>eighth</type><notations></notations></note><note><rest></rest><duration>1</duration><voice>1</voice></note><note><pitch><step>D</step><octave>4</octave></pitch><duration>1</duration><voice>1</voice><type>eighth</type><notations></notations></note><note><chord></chord><pitch><step>F</step><octave>4</octave></pitch><duration>1</duration><voice>1</voice><type>eighth</type><notations></notations></note><note><chord></chord><pitch><step>C</step><octave>5</octave></pitch><duration>1</duration><voice>1</voice><type>eighth</type><notations></notations></note></measure><measure number="36"><note><rest></rest><duration>1</duration><voice>1</voice></note><note><pitch><step>D</step><octave>4</octave></pitch><duration>1</duration><voice>1</voice><type>eighth</type><notations></notations></note><note><chord></chord><pitch><step>F</step><octave>4</octave></pitch><duration>1</duration><voice>1</voice><type>eighth</type><notations></notations></note><note><pitch><step>G</step><octave>4</octave></pitch><duration>1</duration><voice>1</voice><type>eighth</type><notations></notations></note><note><rest></rest><duration>1</duration><voice>1</voice></note><note><pitch><step>D</step><octave>4</octave></pitch><duration>1</duration><voice>1</voice><type>eighth</type><notations></notations></note><note><chord></chord><pitch><step>F</step><octave>4</octave></pitch><duration>1</duration><voice>1</voice><type>eighth</type><notations></notations></note><note><chord></chord><pitch><step>C</step><octave>5</octave></pitch><duration>1</duration><voice>1</voice><type>eighth</type><notations></notations></note><note><pitch><step>E</step><octave>4</octave></pitch><duration>1</duration><voice>1</voice><type>eighth</type><notations></notations></note><note><chord></chord><pitch><step>G</step><octave>4</octave></pitch><duration>1</duration><voice>1</voice><type>eighth</type><notations></notations></note><note><chord></chord><pitch><step>D</step><octave>5</octave></pitch><duration>1</duration><voice>1</voice><type>eighth</type><notations></notations></note><note><rest></rest><duration>1</duration><voice>1</voice></note><note><pitch><step>D</step><octave>4</octave></pitch><duration>1</duration><voice>1</voice><type>eighth</type><notations></notations></note><note><chord></chord><pitch><step>F</step><octave>4</octave></pitch><duration>1</duration><voice>1</voice><type>eighth</type><notations></notations></note></measure><measure number="37"><note><pitch><step>B</step><octave>4</octave></pitch><duration>1</duration><voice>1</voice><type>eighth</type><notations></notations></note><note><chord></chord><pitch><step>F</step><octave>5</octave></pitch><duration>1</duration><voice>1</voice><type>eighth</type><notations></notations></note><note><pitch><step>B</step><alter>-1</alter><octave>4</octave></pitch><duration>1</duration><voice>1</voice><type>eighth</type><notations></notations></note><note><chord></chord><pitch><step>F</step><octave>5</octave></pitch><duration>1</duration><voice>1</voice><type>eighth</type><notations></notations></note><note><chord></chord><pitch><step>A</step><octave>5</octave></pitch><duration>1</duration><voice>1</voice><type>eighth</type><notations></notations></note><note><rest></rest><duration>1</duration><voice>1</voice></note><note><pitch><step>D</step><octave>4</octave></pitch><duration>1</duration><voice>1</voice><type>eighth</type><notations></notations></note><note><chord></chord><pitch><step>G</step><octave>4</octave></pitch><duration>1</duration><voice>1</voice><type>eighth</type><notations></notations></note><note><pitch><step>G</step><octave>4</octave></pitch><duration>1</duration><voice>1</voice><type>eighth</type><notations></notations></note><note><rest></rest><duration>1</duration><voice>1</voice></note><note><pitch><step>D</step><octave>4</octave></pitch><duration>1</duration><voice>1</voice><type>eighth</type><notations></notations></note><note><chord></chord><pitch><step>G</step><octave>4</octave></pitch><duration>1</duration><voice>1</voice><type>eighth</type><notations></notations></note><note><pitch><step>E</step><alter>-1</alter><octave>4</octave></pitch><duration>1</duration><voice>1</voice><type>eighth</type><notations></notations></note><note><chord></chord><pitch><step>B</step><alter>-1</alter><octave>4</octave></pitch><duration>1</duration><voice>1</voice><type>eighth</type><notations></notations></note></measure><measure number="38"><note><pitch><step>B</step><alter>-1</alter><octave>4</octave></pitch><duration>1</duration><voice>1</voice><type>eighth</type><notations></notations></note><note><chord></chord><pitch><step>D</step><octave>5</octave></pitch><duration>1</duration><voice>1</voice><type>eighth</type><notations></notations></note><note><rest></rest><duration>1</duration><voice>1</voice></note><note><pitch><step>D</step><octave>4</octave></pitch><duration>1</duration><voice>1</voice><type>eighth</type><notations></notations></note><note><chord></chord><pitch><step>B</step><alter>-1</alter><octave>4</octave></pitch><duration>1</duration><voice>1</voice><type>eighth</type><notations></notations></note><note><pitch><step>B</step><alter>-1</alter><octave>4</octave></pitch><duration>1</duration><voice>1</voice><type>eighth</type><notations></notations></note><note><chord></chord><pitch><step>D</step><octave>5</octave></pitch><duration>1</duration><voice>1</voice><type>eighth</type><notations></notations></note><note><rest></rest><duration>1</duration><voice>1</voice></note><note><pitch><step>D</step><octave>4</octave></pitch><duration>1</duration><voice>1</voice><type>eighth</type><notations></notations></note><note><chord></chord><pitch><step>B</step><alter>-1</alter><octave>4</octave></pitch><duration>1</duration><voice>1</voice><type>eighth</type><notations></notations></note><note><pitch><step>G</step><octave>4</octave></pitch><duration>1</duration><voice>1</voice><type>eighth</type><notations></notations></note><note><chord></chord><pitch><step>C</step><octave>5</octave></pitch><duration>1</duration><voice>1</voice><type>eighth</type><notations></notations></note><note><rest></rest><duration>1</duration><voice>1</voice></note></measure><measure number="39"><note><pitch><step>D</step><octave>4</octave></pitch><duration>1</duration><voice>1</voice><type>eighth</type><notations></notations></note><note><chord></chord><pitch><step>B</step><alter>-1</alter><octave>4</octave></pitch><duration>1</duration><voice>1</voice><type>eighth</type><notations></notations></note><note><pitch><step>E</step><octave>4</octave></pitch><duration>1</duration><voice>1</voice><type>eighth</type><notations></notations></note><note><rest></rest><duration>1</duration><voice>1</voice></note><note><pitch><step>D</step><octave>4</octave></pitch><duration>1</duration><voice>1</voice><type>eighth</type><notations></notations></note><note><chord></chord><pitch><step>B</step><alter>-1</alter><octave>4</octave></pitch><duration>1</duration><voice>1</voice><type>eighth</type><notations></notations></note><note><pitch><step>E</step><alter>-1</alter><octave>4</octave></pitch><duration>1</duration><voice>1</voice><type>eighth</type><notations></notations></note><note><chord></chord><pitch><step>G</step><octave>4</octave></pitch><duration>1</duration><voice>1</voice><type>eighth</type><notations></notations></note><note><rest></rest><duration>1</duration><voice>1</voice></note><note><pitch><step>B</step><octave>4</octave></pitch><duration>1</duration><voice>1</voice><type>eighth</type><notations></notations></note><note><chord></chord><pitch><step>A</step><octave>5</octave></pitch><duration>1</duration><voice>1</voice><type>eighth</type><notations></notations></note><note><rest></rest><duration>1</duration><voice>1</voice></note></measure><measure number="40"><note><pitch><step>B</step><octave>4</octave></pitch><duration>1</duration><voice>1</voice><type>eighth</type><notations></notations></note><note><pitch><step>D</step><octave>4</octave></pitch><duration>1</duration><voice>1</voice><type>eighth</type><notations></notations></note><note><chord></chord><pitch><step>G</step><octave>4</octave></pitch><duration>1</duration><voice>1</voice><type>eighth</type><notations></notations></note><note><rest></rest><duration>1</duration><voice>1</voice></note><note><pitch><step>B</step><octave>4</octave></pitch><duration>1</duration><voice>1</voice><type>eighth</type><notations></notations></note><note><pitch><step>E</step><alter>-1</alter><octave>4</octave></pitch><duration>1</duration><voice>1</voice><type>eighth</type><notations></notations></note><note><rest></rest><duration>1</duration><voice>1</voice></note><note><pitch><step>B</step><octave>4</octave></pitch><duration>1</duration><voice>1</voice><type>eighth</type><notations></notations></note><note><chord></chord><pitch><step>F</step><octave>5</octave></pitch><duration>1</duration><voice>1</voice><type>eighth</type><notations></notations></note><note><pitch><step>B</step><alter>-1</alter><octave>4</octave></pitch><duration>1</duration><voice>1</voice><type>eighth</type><notations></notations></note><note><chord></chord><pitch><step>E</step><octave>5</octave></pitch><duration>1</duration><voice>1</voice><type>eighth</type><notations></notations></note></measure><measure number="41"><note><rest></rest><duration>1</duration><voice>1</voice></note><note><pitch><step>B</step><octave>4</octave></pitch><duration>1</duration><voice>1</voice><type>eighth</type><notations></notations></note><note><chord></chord><pitch><step>F</step><octave>5</octave></pitch><duration>1</duration><voice>1</voice><type>eighth</type><notations></notations></note><note><chord></chord><pitch><step>A</step><octave>5</octave></pitch><duration>1</duration><voice>1</voice><type>eighth</type><notations></notations></note><note><pitch><step>E</step><octave>4</octave></pitch><duration>1</duration><voice>1</voice><type>eighth</type><notations></notations></note><note><chord></chord><pitch><step>A</step><octave>4</octave></pitch><duration>1</duration><voice>1</voice><type>eighth</type><notations></notations></note><note><rest></rest><duration>1</duration><voice>1</voice></note><note><pitch><step>B</step><octave>4</octave></pitch><duration>1</duration><voice>1</voice><type>eighth</type><notations></notations></note><note><chord></chord><pitch><step>E</step><octave>5</octave></pitch><duration>1</duration><voice>1</voice><type>eighth</type><notations></notations></note><note><pitch><step>A</step><octave>4</octave></pitch><duration>1</duration><voice>1</voice><type>eighth</type><notations></notations></note><note><chord></chord><pitch><step>C</step><octave>5</octave></pitch><duration>1</duration><voice>1</voice><type>eighth</type><notations></notations></note><note><rest></rest><duration>1</duration><voice>1</voice></note><note><pitch><step>B</step><octave>4</octave></pitch><duration>1</duration><voice>1</voice><type>eighth</type><notations></notations></note><note><chord></chord><pitch><step>E</step><octave>5</octave></pitch><duration>1</duration><voice>1</voice><type>eighth</type><notations></notations></note></measure><measure number="42"><note><pitch><step>F</step><octave>4</octave></pitch><duration>1</duration><voice>1</voice><type>eighth</type><notations></notations></note><note><chord></chord><pitch><step>B</step><alter>-1</alter><octave>4</octave></pitch><duration>1</duration><voice>1</voice><type>eighth</type><notations></notations></note><note><rest></rest><duration>1</duration><voice>1</voice></note><note><pitch><step>B</step><octave>4</octave></pitch><duration>1</duration><voice>1</voice><type>eighth</type><notations></notations></note><note><chord></chord><pitch><step>G</step><octave>5</octave></pitch><duration>1</duration><voice>1</voice><type>eighth</type><notations></notations></note><note><rest></rest><duration>1</duration><voice>1</voice></note><note><pitch><step>C</step><octave>4</octave></pitch><duration>1</duration><voice>1</voice><type>eighth</type><notations></notations></note><note><chord></chord><pitch><step>E</step><octave>4</octave></pitch><duration>1</duration><voice>1</voice><type>eighth</type><notations></notations></note><note><chord></chord><pitch><step>A</step><octave>4</octave></pitch><duration>1</duration><voice>1</voice><type>eighth</type><notations></notations></note><note><pitch><step>E</step><octave>4</octave></pitch><duration>1</duration><voice>1</voice><type>eighth</type><notations></notations></note><note><rest></rest><duration>1</duration><voice>1</voice></note><note><pitch><step>C</step><octave>4</octave></pitch><duration>1</duration><voice>1</voice><type>eighth</type><notations></notations></note><note><chord></chord><pitch><step>A</step><octave>4</octave></pitch><duration>1</duration><voice>1</voice><type>eighth</type><notations></notations></note></measure><measure number="43"><note><pitch><step>B</step><octave>4</octave></pitch><duration>1</duration><voice>1</voice><type>eighth</type><notations></notations></note><note><rest></rest><duration>1</duration><voice>1</voice></note><note><pitch><step>C</step><octave>4</octave></pitch><duration>1</duration><voice>1</voice><type>eighth</type><notations></notations></note><note><chord></chord><pitch><step>A</step><octave>4</octave></pitch><duration>1</duration><voice>1</voice><type>eighth</type><notations></notations></note><note><pitch><step>B</step><octave>4</octave></pitch><duration>1</duration><voice>1</voice><type>eighth</type><notations></notations></note><note><pitch><step>B</step><alter>-1</alter><octave>4</octave></pitch><duration>1</duration><voice>1</voice><type>eighth</type><notations></notations></note><note><rest></rest><duration>1</duration><voice>1</voice></note><note><pitch><step>E</step><alter>-1</alter><octave>4</octave></pitch><duration>1</duration><voice>1</voice><type>eighth</type><notations></notations></note><note><pitch><step>B</step><alter>-1</alter><octave>4</octave></pitch><duration>1</duration><voice>1</voice><type>eighth</type><notations></notations></note><note><chord></chord><pitch><step>E</step><octave>5</octave></pitch><duration>1</duration><voice>1</voice><type>eighth</type><notations></notations></note></measure><measure number="44"><note><rest></rest><duration>1</duration><voice>1</voice></note><note><pitch><step>E</step><alter>-1</alter><octave>4</octave></pitch><duration>1</duration><voice>1</voice><type>eighth</type><notations></notations></note><note><chord></chord><pitch><step>D</step><octave>5</octave></pitch><duration>1</duration><voice>1</voice><type>eighth</type><notations></notations></note><note><rest></rest><duration>1</duration><voice>1</voice></note><note><pitch><step>E</step><alter>-1</alter><octave>4</octave></pitch><duration>1</duration><voice>1</voice><type>eighth</type><notations></notations></note><note><pitch><step>D</step><octave>4</octave></pitch><duration>1</duration><voice>1</voice><type>eighth</type><notations></notations></note><note><chord></chord><pitch><step>G</step><octave>4</octave></pitch><duration>1</duration><voice>1</voice><type>eighth</type><notations></notations></note><note><rest></rest><duration>1</duration><voice>1</voice></note><note><pitch><step>E</step><alter>-1</alter><octave>4</octave></pitch><duration>1</duration><voice>1</voice><type>eighth</type><notations></notations></note><note><pitch><step>E</step><alter>-1</alter><octave>4</octave></pitch><duration>1</duration><voice>1</voice><type>eighth</type><notations></notations></note></measure><measure number="45"><note><rest></rest><duration>1</duration><voice>1</voice></note><note><pitch><step>E</step><alter>-1</alter><octave>4</octave></pitch><duration>1</duration><voice>1</voice><type>eighth</type><notations></notations></note><note><chord></chord><pitch><step>B</step><alter>-1</alter><octave>4</octave></pitch><duration>1</duration><voice>1</voice><type>eighth</type><notations></notations></note><note><pitch><step>A</step><octave>4</octave></pitch><duration>1</duration><voice>1</voice><type>eighth</type><notations></notations></note><note><rest></rest><duration>1</duration><voice>1</voice></note><note><pitch><step>E</step><alter>-1</alter><octave>4</octave></pitch><duration>1</duration><voice>1</voice><type>eighth</type><notations></notations></note><note><chord></chord><pitch><step>G</step><octave>4</octave></pitch><duration>1</duration><voice>1</voice><type>eighth</type><notations></notations></note><note><pitch><step>B</step><alter>-1</alter><octave>4</octave></pitch><duration>1</duration><voice>1</voice><type>eighth</type><notations></notations></note><note><chord></chord><pitch><step>F</step><octave>5</octave></pitch><duration>1</duration><voice>1</voice><type>eighth</type><notations></notations></note><note><rest></rest><duration>2</duration><voice>1</voice></note></measure></part></score-partwise>